<svg width="56" height="56" viewBox="0 0 56 56" fill="none" xmlns="http://www.w3.org/2000/svg">
<path d="M2.00208 2.00005C2.0021 2.00003 2.00212 2.00002 2.00213 2H54V39H10.1324C8.72733 39 7.4253 39.7372 6.70241 40.942L2 48.7794L2 41V40.998V40.9961V40.9941V40.9921V40.9901V40.9882V40.9862V40.9842V40.9823V40.9803V40.9783V40.9764V40.9744V40.9724V40.9704V40.9685V40.9665V40.9645V40.9626V40.9606V40.9586V40.9567V40.9547V40.9527V40.9507V40.9488V40.9468V40.9448V40.9429V40.9409V40.9389V40.937V40.935V40.933V40.9311V40.9291V40.9271V40.9252V40.9232V40.9212V40.9192V40.9173V40.9153V40.9133V40.9114V40.9094V40.9074V40.9055V40.9035V40.9015V40.8996V40.8976V40.8956V40.8937V40.8917V40.8897V40.8878V40.8858V40.8838V40.8819V40.8799V40.8779V40.876V40.874V40.872V40.8701V40.8681V40.8661V40.8642V40.8622V40.8602V40.8583V40.8563V40.8543V40.8524V40.8504V40.8484V40.8465V40.8445V40.8425V40.8406V40.8386V40.8366V40.8347V40.8327V40.8307V40.8288V40.8268V40.8249V40.8229V40.8209V40.819V40.817V40.815V40.8131V40.8111V40.8091V40.8072V40.8052V40.8032V40.8013V40.7993V40.7974V40.7954V40.7934V40.7915V40.7895V40.7875V40.7856V40.7836V40.7816V40.7797V40.7777V40.7758V40.7738V40.7718V40.7699V40.7679V40.7659V40.764V40.762V40.7601V40.7581V40.7561V40.7542V40.7522V40.7502V40.7483V40.7463V40.7444V40.7424V40.7404V40.7385V40.7365V40.7346V40.7326V40.7306V40.7287V40.7267V40.7247V40.7228V40.7208V40.7189V40.7169V40.7149V40.713V40.711V40.7091V40.7071V40.7051V40.7032V40.7012V40.6993V40.6973V40.6953V40.6934V40.6914V40.6895V40.6875V40.6855V40.6836V40.6816V40.6797V40.6777V40.6757V40.6738V40.6718V40.6699V40.6679V40.6659V40.664V40.662V40.6601V40.6581V40.6561V40.6542V40.6522V40.6503V40.6483V40.6464V40.6444V40.6424V40.6405V40.6385V40.6366V40.6346V40.6326V40.6307V40.6287V40.6268V40.6248V40.6229V40.6209V40.6189V40.617V40.615V40.6131V40.6111V40.6092V40.6072V40.6052V40.6033V40.6013V40.5994V40.5974V40.5955V40.5935V40.5915V40.5896V40.5876V40.5857V40.5837V40.5818V40.5798V40.5779V40.5759V40.5739V40.572V40.57V40.5681V40.5661V40.5642V40.5622V40.5603V40.5583V40.5563V40.5544V40.5524V40.5505V40.5485V40.5466V40.5446V40.5427V40.5407V40.5387V40.5368V40.5348V40.5329V40.5309V40.529V40.527V40.5251V40.5231V40.5212V40.5192V40.5173V40.5153V40.5133V40.5114V40.5094V40.5075V40.5055V40.5036V40.5016V40.4997V40.4977V40.4958V40.4938V40.4919V40.4899V40.488V40.486V40.4841V40.4821V40.4801V40.4782V40.4762V40.4743V40.4723V40.4704V40.4684V40.4665V40.4645V40.4626V40.4606V40.4587V40.4567V40.4548V40.4528V40.4509V40.4489V40.447V40.445V40.4431V40.4411V40.4392V40.4372V40.4353V40.4333V40.4314V40.4294V40.4275V40.4255V40.4236V40.4216V40.4197V40.4177V40.4158V40.4138V40.4119V40.4099V40.408V40.406V40.4041V40.4021V40.4002V40.3982V40.3963V40.3943V40.3924V40.3904V40.3885V40.3865V40.3846V40.3826V40.3807V40.3787V40.3768V40.3748V40.3729V40.3709V40.369V40.367V40.3651V40.3631V40.3612V40.3592V40.3573V40.3553V40.3534V40.3514V40.3495V40.3475V40.3456V40.3436V40.3417V40.3397V40.3378V40.3359V40.3339V40.332V40.33V40.3281V40.3261V40.3242V40.3222V40.3203V40.3183V40.3164V40.3144V40.3125V40.3105V40.3086V40.3067V40.3047V40.3028V40.3008V40.2989V40.2969V40.295V40.293V40.2911V40.2891V40.2872V40.2852V40.2833V40.2814V40.2794V40.2775V40.2755V40.2736V40.2716V40.2697V40.2677V40.2658V40.2639V40.2619V40.26V40.258V40.2561V40.2541V40.2522V40.2502V40.2483V40.2464V40.2444V40.2425V40.2405V40.2386V40.2366V40.2347V40.2327V40.2308V40.2289V40.2269V40.225V40.223V40.2211V40.2191V40.2172V40.2153V40.2133V40.2114V40.2094V40.2075V40.2055V40.2036V40.2017V40.1997V40.1978V40.1958V40.1939V40.1919V40.19V40.1881V40.1861V40.1842V40.1822V40.1803V40.1783V40.1764V40.1745V40.1725V40.1706V40.1686V40.1667V40.1648V40.1628V40.1609V40.1589V40.157V40.1551V40.1531V40.1512V40.1492V40.1473V40.1454V40.1434V40.1415V40.1395V40.1376V40.1356V40.1337V40.1318V40.1298V40.1279V40.1259V40.124V40.1221V40.1201V40.1182V40.1162V40.1143V40.1124V40.1104V40.1085V40.1066V40.1046V40.1027V40.1007V40.0988V40.0969V40.0949V40.093V40.091V40.0891V40.0872V40.0852V40.0833V40.0813V40.0794V40.0775V40.0755V40.0736V40.0717V40.0697V40.0678V40.0658V40.0639V40.062V40.06V40.0581V40.0562V40.0542V40.0523V40.0503V40.0484V40.0465V40.0445V40.0426V40.0407V40.0387V40.0368V40.0348V40.0329V40.031V40.029V40.0271V40.0252V40.0232V40.0213V40.0194V40.0174V40.0155V40.0135V40.0116V40.0097V40.0077V40.0058V40.0039V40.0019V40V39.9138V39.8277V39.7418V39.656V39.5703V39.4848V39.3994V39.3141V39.229V39.144V39.0591V38.9743V38.8897V38.8052V38.7209V38.6366V38.5525V38.4685V38.3847V38.3009V38.2173V38.1338V38.0505V37.9673V37.8841V37.8012V37.7183V37.6355V37.5529V37.4704V37.388V37.3058V37.2236V37.1416V37.0597V36.9779V36.8962V36.8146V36.7332V36.6518V36.5706V36.4895V36.4085V36.3277V36.2469V36.1662V36.0857V36.0053V35.925V35.8448V35.7647V35.6847V35.6048V35.525V35.4453V35.3658V35.2863V35.207V35.1277V35.0486V34.9696V34.8906V34.8118V34.7331V34.6545V34.576V34.4975V34.4192V34.341V34.2629V34.1849V34.1069V34.0291V33.9514V33.8738V33.7962V33.7188V33.6415V33.5642V33.4871V33.41V33.3331V33.2562V33.1794V33.1027V33.0261V32.9496V32.8732V32.7969V32.7207V32.6445V32.5685V32.4925V32.4166V32.3408V32.2651V32.1895V32.1139V32.0385V31.9631V31.8878V31.8126V31.7375V31.6625V31.5875V31.5126V31.4379V31.3631V31.2885V31.2139V31.1395V31.0651V30.9907V30.9165V30.8423V30.7682V30.6942V30.6203V30.5464V30.4726V30.3989V30.3252V30.2517V30.1782V30.1047V30.0314V29.9581V29.8849V29.8117V29.7386V29.6656V29.5926V29.5198V29.4469V29.3742V29.3015V29.2289V29.1563V29.0839V29.0114V28.9391V28.8668V28.7945V28.7223V28.6502V28.5782V28.5062V28.4342V28.3624V28.2905V28.2188V28.1471V28.0754V28.0038V27.9323V27.8608V27.7894V27.718V27.6467V27.5754V27.5042V27.433V27.3619V27.2909V27.2199V27.1489V27.078V27.0071V26.9363V26.8656V26.7948V26.7242V26.6536V26.583V26.5124V26.442V26.3715V26.3011V26.2308V26.1605V26.0902V26.02V25.9498V25.8796V25.8095V25.7395V25.6694V25.5994V25.5295V25.4596V25.3897V25.3199V25.2501V25.1803V25.1106V25.0409V24.9712V24.9016V24.832V24.7624V24.6929V24.6234V24.5539V24.4845V24.4151V24.3457V24.2763V24.207V24.1377V24.0684V23.9992V23.93V23.8608V23.7916V23.7225V23.6534V23.5843V23.5152V23.4462V23.3772V23.3082V23.2392V23.1702V23.1013V23.0324V22.9635V22.8946V22.8257V22.7569V22.688V22.6192V22.5504V22.4816V22.4129V22.3441V22.2754V22.2066V22.1379V22.0692V22.0005V21.9319V21.8632V21.7945V21.7259V21.6573V21.5886V21.52V21.4514V21.3828V21.3142V21.2456V21.177V21.1084V21.0399V20.9713V20.9027V20.8341V20.7656V20.697V20.6285V20.5599V20.4913V20.4228V20.3542V20.2857V20.2171V20.1485V20.08V20.0114V19.9428V19.8742V19.8057V19.7371V19.6685V19.5999V19.5313V19.4627V19.394V19.3254V19.2568V19.1881V19.1195V19.0508V18.9821V18.9134V18.8447V18.776V18.7073V18.6385V18.5698V18.501V18.4322V18.3634V18.2946V18.2258V18.1569V18.088V18.0191V17.9502V17.8813V17.8124V17.7434V17.6744V17.6054V17.5364V17.4673V17.3983V17.3292V17.26V17.1909V17.1217V17.0525V16.9833V16.9141V16.8448V16.7755V16.7062V16.6368V16.5674V16.498V16.4285V16.3591V16.2896V16.22V16.1504V16.0808V16.0112V15.9415V15.8718V15.8021V15.7323V15.6625V15.5927V15.5228V15.4528V15.3829V15.3129V15.2429V15.1728V15.1027V15.0325V14.9623V14.8921V14.8218V14.7515V14.6811V14.6107V14.5402V14.4697V14.3992V14.3286V14.258V14.1873V14.1166V14.0458V13.975V13.9041V13.8332V13.7622V13.6912V13.6201V13.549V13.4778V13.4066V13.3353V13.264V13.1926V13.1212V13.0497V12.9781V12.9065V12.8348V12.7631V12.6913V12.6195V12.5476V12.4757V12.4036V12.3316V12.2594V12.1872V12.115V12.0427V11.9703V11.8978V11.8253V11.7528V11.6801V11.6074V11.5347V11.4618V11.3889V11.316V11.2429V11.1698V11.0967V11.0234V10.9501V10.8767V10.8033V10.7298V10.6562V10.5825V10.5088V10.4349V10.3611V10.2871V10.2131V10.1389V10.0648V9.99049V9.91615V9.84173V9.76723V9.69266V9.618V9.54327V9.46845V9.39356V9.31858V9.24352V9.16838V9.09316V9.01785V8.94246V8.86699V8.79143V8.71578V8.64005V8.56424V8.48833V8.41234V8.33626V8.2601V8.18384V8.10749V8.03106V7.95453V7.87792V7.80121V7.72441V7.64752V7.57053V7.49345V7.41628V7.33901V7.26164V7.18419V7.10663V7.02898V6.95123V6.87338V6.79544V6.7174V6.63925V6.56101V6.48267V6.40422V6.32568V6.24703V6.16828V6.08943V6.01048V5.93142V5.85225V5.77299V5.69361V5.61413V5.53454V5.45485V5.37505V5.29514V5.21512V5.135V5.05476V4.97442V4.89396V4.81339V4.73271V4.65192V4.57102V4.49V4.40887V4.32762V4.24626V4.16479V4.08319V4.00149V3.91966V3.83772V3.75566V3.67348V3.59119V3.50877V3.42623V3.34358V3.2608V3.1779V3.09488V3.01174V2.92847V2.84508V2.76157V2.67793V2.59416V2.51028V2.42626V2.34212V2.25785V2.17345V2.08893V2.00427C2 2.00353 2.00002 2.00294 2.00004 2.0025C2.00042 2.00193 2.00108 2.00106 2.00208 2.00005Z" stroke="white" stroke-width="4"/>
<line x1="10" y1="13" x2="46" y2="13" stroke="white" stroke-width="4"/>
<line x1="10" y1="21" x2="46" y2="21" stroke="white" stroke-width="4"/>
<line x1="10" y1="29" x2="46" y2="29" stroke="white" stroke-width="4"/>
</svg>
