<svg width="100" height="100" viewBox="0 0 100 100" fill="none" xmlns="http://www.w3.org/2000/svg">
<path opacity="0.1" d="M100 50C100 77.6142 77.6142 100 50 100C22.3858 100 0 77.6142 0 50C0 22.3858 22.3858 0 50 0C77.6142 0 100 22.3858 100 50ZM8.53622 50C8.53622 72.8998 27.1002 91.4638 50 91.4638C72.8998 91.4638 91.4638 72.8998 91.4638 50C91.4638 27.1002 72.8998 8.53622 50 8.53622C27.1002 8.53622 8.53622 27.1002 8.53622 50Z" fill="#252525"/>
<path d="M25.3364 6.50622C14.1076 12.8736 5.77649 23.3371 2.08644 35.707C-1.60361 48.0768 -0.366605 61.3945 5.53859 72.8732L13.1292 68.9682C8.23221 59.4492 7.20639 48.4052 10.2665 38.1471C13.3265 27.8891 20.2353 19.212 29.5471 13.9317L25.3364 6.50622Z" fill="#EC5E58"/>
</svg>
